<?xml version="1.0" encoding="UTF-8" standalone="no"?>
<svg width="447px" height="140px" viewBox="0 0 447 140" version="1.1" xmlns="http://www.w3.org/2000/svg" xmlns:xlink="http://www.w3.org/1999/xlink">
    <!-- Generator: Sketch 50.2 (55047) - http://www.bohemiancoding.com/sketch -->
    <title>YorkULogo_Hor_186 2svg</title>
    <desc>Created with Sketch.</desc>
    <defs>
        <polygon id="path-1" points="0.06 0.754 287.573 0.754 287.573 108.939 0.06 108.939"></polygon>
    </defs>
    <g id="Page-1" stroke="none" stroke-width="1" fill="none" fill-rule="evenodd">
        <g id="YorkULogo_Hor_186">
            <path d="M17.251,102.365 C17.251,107.621 14.089,108.935 11.462,108.935 C8.834,108.935 5.672,107.621 5.672,102.365 L5.672,92.746 L7.721,92.746 L7.721,102.9 C7.721,105.039 8.656,107.287 11.462,107.287 C14.268,107.287 15.203,105.039 15.203,102.9 L15.203,92.746 L17.251,92.746 L17.251,102.365" id="Fill-1" fill="#1A1919"></path>
            <path d="M39.207,92.746 L41.923,92.746 L48.292,103.814 C48.626,104.392 49.16,105.461 49.361,105.996 L49.472,105.996 C49.427,105.461 49.361,104.705 49.361,104.013 L49.361,92.746 L51.409,92.746 L51.409,108.601 L48.67,108.601 L42.324,97.4 C41.99,96.822 41.456,95.752 41.255,95.218 L41.144,95.218 C41.189,95.752 41.255,96.509 41.255,97.199 L41.255,108.601 L39.207,108.601 L39.207,92.746" id="Fill-2" fill="#1A1919"></path>
            <polygon id="Fill-3" fill="#1A1919" points="73.387 108.601 75.436 108.601 75.436 92.746 73.387 92.746"></polygon>
            <path d="M101.889,104.705 C102.111,105.349 102.268,105.996 102.423,106.64 L102.535,106.64 C102.69,105.996 102.846,105.349 103.069,104.705 L107.033,92.746 L109.148,92.746 L103.737,108.601 L101.087,108.601 L95.81,92.746 L98.059,92.746 L101.889,104.705" id="Fill-4" fill="#1A1919"></path>
            <polyline id="Fill-5" fill="#1A1919" points="129.5 92.746 139.03 92.746 139.03 94.394 131.549 94.394 131.549 99.56 138.652 99.56 138.652 101.209 131.549 101.209 131.549 106.953 139.253 106.953 139.253 108.601 129.5 108.601 129.5 92.746"></polyline>
            <path d="M162.5,99.783 L165.729,99.783 C168.045,99.783 168.713,98.381 168.713,97.156 C168.713,94.506 166.419,94.394 165.506,94.394 L162.5,94.394 L162.5,99.783 Z M160.452,92.746 L165.907,92.746 C168.624,92.746 170.761,94.082 170.761,97 C170.761,100.051 168.668,100.785 167.867,101.053 L171.652,108.601 L169.203,108.601 L165.929,101.431 L162.5,101.431 L162.5,108.601 L160.452,108.601 L160.452,92.746 Z" id="Fill-6" fill="#1A1919"></path>
            <path d="M193.318,104.838 C193.607,105.951 194.498,107.287 196.613,107.287 C198.618,107.287 199.687,105.861 199.687,104.525 C199.687,102.812 198.595,102.277 198.016,102.01 L194.187,100.228 C192.694,99.539 191.826,98.402 191.826,96.754 C191.826,93.66 194.521,92.412 196.792,92.412 C199.041,92.412 200.889,93.191 201.646,95.306 L199.642,95.974 C199.263,94.484 197.927,94.06 196.792,94.06 C194.832,94.06 194.008,95.174 194.008,96.621 C194.008,98.179 195.077,98.67 196.101,99.115 L198.952,100.361 C199.931,100.785 201.869,101.742 201.869,104.482 C201.869,105.972 200.956,108.935 196.436,108.935 C192.961,108.935 191.67,106.752 191.336,105.572 L193.318,104.838" id="Fill-7" fill="#1A1919"></path>
            <polygon id="Fill-8" fill="#1A1919" points="223.2 108.601 225.249 108.601 225.249 92.746 223.2 92.746"></polygon>
            <polyline id="Fill-9" fill="#1A1919" points="250.254 94.527 245.645 94.527 245.645 92.746 256.913 92.746 256.913 94.527 252.303 94.527 252.303 108.601 250.254 108.601 250.254 94.527"></polyline>
            <path d="M282.364,88.56 L284.77,88.56 L281.608,91.744 L280.049,91.744 L282.364,88.56 Z M277.288,92.746 L286.817,92.746 L286.817,94.394 L279.336,94.394 L279.336,99.56 L286.44,99.56 L286.44,101.209 L279.336,101.209 L279.336,106.953 L287.04,106.953 L287.04,108.601 L277.288,108.601 L277.288,92.746 Z" id="Fill-10" fill="#1A1919"></path>
            <path d="M17.277,133.431 C17.277,138.687 14.116,140 11.488,140 C8.86,140 5.699,138.687 5.699,133.431 L5.699,123.812 L7.747,123.812 L7.747,133.967 C7.747,136.103 8.683,138.353 11.488,138.353 C14.294,138.353 15.229,136.103 15.229,133.967 L15.229,123.812 L17.277,123.812 L17.277,133.431" id="Fill-11" fill="#1A1919"></path>
            <path d="M39.1,123.812 L41.816,123.812 L48.185,134.879 C48.519,135.457 49.053,136.527 49.253,137.06 L49.365,137.06 C49.32,136.527 49.253,135.769 49.253,135.08 L49.253,123.812 L51.302,123.812 L51.302,139.666 L48.563,139.666 L42.217,128.467 C41.883,127.886 41.349,126.818 41.148,126.283 L41.037,126.283 C41.081,126.818 41.148,127.576 41.148,128.265 L41.148,139.666 L39.1,139.666 L39.1,123.812" id="Fill-12" fill="#1A1919"></path>
            <polygon id="Fill-13" fill="#1A1919" points="73.146 139.666 75.195 139.666 75.195 123.812 73.146 123.812"></polygon>
            <path d="M101.514,135.769 C101.737,136.416 101.893,137.06 102.049,137.707 L102.16,137.707 C102.316,137.06 102.472,136.416 102.694,135.769 L106.658,123.812 L108.773,123.812 L103.363,139.666 L100.713,139.666 L95.436,123.812 L97.685,123.812 L101.514,135.769" id="Fill-14" fill="#1A1919"></path>
            <polyline id="Fill-15" fill="#1A1919" points="128.992 123.812 138.522 123.812 138.522 125.459 131.041 125.459 131.041 130.625 138.144 130.625 138.144 132.273 131.041 132.273 131.041 138.019 138.745 138.019 138.745 139.666 128.992 139.666 128.992 123.812"></polyline>
            <path d="M161.858,130.847 L165.087,130.847 C167.403,130.847 168.071,129.445 168.071,128.22 C168.071,125.57 165.778,125.459 164.865,125.459 L161.858,125.459 L161.858,130.847 Z M159.81,123.812 L165.266,123.812 C167.982,123.812 170.12,125.148 170.12,128.064 C170.12,131.115 168.027,131.851 167.225,132.117 L171.01,139.666 L168.561,139.666 L165.288,132.496 L161.858,132.496 L161.858,139.666 L159.81,139.666 L159.81,123.812 Z" id="Fill-16" fill="#1A1919"></path>
            <path d="M192.542,135.902 C192.832,137.017 193.723,138.353 195.838,138.353 C197.842,138.353 198.911,136.928 198.911,135.592 C198.911,133.877 197.82,133.342 197.241,133.076 L193.411,131.295 C191.919,130.603 191.051,129.469 191.051,127.82 C191.051,124.724 193.745,123.478 196.016,123.478 C198.265,123.478 200.113,124.258 200.871,126.373 L198.867,127.041 C198.488,125.549 197.152,125.125 196.016,125.125 C194.057,125.125 193.233,126.24 193.233,127.687 C193.233,129.246 194.302,129.734 195.326,130.179 L198.176,131.428 C199.156,131.851 201.093,132.808 201.093,135.547 C201.093,137.039 200.18,140 195.66,140 C192.187,140 190.895,137.818 190.561,136.638 L192.542,135.902" id="Fill-17" fill="#1A1919"></path>
            <polygon id="Fill-18" fill="#1A1919" points="222.292 139.666 224.34 139.666 224.34 123.812 222.292 123.812"></polygon>
            <polyline id="Fill-19" fill="#1A1919" points="249.213 125.594 244.604 125.594 244.604 123.812 255.87 123.812 255.87 125.594 251.262 125.594 251.262 139.666 249.213 139.666 249.213 125.594"></polyline>
            <path d="M280.231,133.187 L274.62,123.812 L277.069,123.812 L280.631,130.025 C280.877,130.447 281.077,130.916 281.278,131.361 L281.323,131.361 C281.522,130.916 281.745,130.447 281.991,130.025 L285.575,123.812 L287.891,123.812 L282.28,133.187 L282.28,139.666 L280.231,139.666 L280.231,133.187" id="Fill-20" fill="#1A1919"></path>
            <g id="Group-24" transform="translate(0.000000, 7.000000)">
                <mask id="mask-2" fill="white">
                    <use xlink:href="#path-1"></use>
                </mask>
                <g id="Clip-22"></g>
                <polyline id="Fill-21" fill="#1A1919" mask="url(#mask-2)" points="5.802 107.939 5.802 108.939 287.573 108.912 287.573 107.912 5.802 107.939"></polyline>
                <path d="M19.885,63.25 L22.085,63.25 C26.667,63.25 27.674,61.509 27.674,56.744 L27.674,42.265 L10.08,10.742 C6.506,4.328 5.315,3.503 0.825,3.503 L0,3.503 L0,0.754 C3.94,0.846 7.789,1.029 11.546,1.029 C15.395,1.029 19.335,0.846 23.184,0.754 L23.184,3.503 L21.535,3.503 C19.61,3.503 18.144,4.145 18.144,6.435 C18.144,7.718 19.244,10.193 20.16,11.842 L33.722,36.309 L46.368,12.117 C47.101,10.742 48.842,7.26 48.842,5.611 C48.842,4.053 47.743,3.503 45.269,3.503 L43.527,3.503 L43.527,0.754 C47.284,0.846 49.758,1.029 52.599,1.029 C55.623,1.029 58.739,0.846 61.671,0.754 L61.671,3.503 L59.38,3.503 C55.624,3.503 54.799,4.695 51.958,10.009 L35.738,40.341 L35.738,56.744 C35.738,62.151 37.754,63.25 41.328,63.25 L43.161,63.25 L43.161,66 C39.312,65.908 35.372,65.724 31.523,65.724 C27.491,65.724 23.275,65.908 19.885,66 L19.885,63.25" id="Fill-23" fill="#1A1919" mask="url(#mask-2)"></path>
            </g>
            <path d="M101.992,10.411 C89.163,10.411 77.066,18.292 77.066,39.552 C77.066,54.397 86.78,70.709 102.542,70.709 C119.494,70.709 127.284,58.246 127.284,41.384 C127.284,26.631 118.028,10.411 101.992,10.411 Z M102.267,6.563 C120.502,6.563 136.447,21.316 136.447,40.377 C136.447,56.505 123.984,74.191 101.992,74.191 C82.198,74.191 67.903,59.254 67.903,41.11 C67.903,20.675 84.214,6.563 102.267,6.563 Z" id="Fill-25" fill="#1A1919"></path>
            <path d="M166.596,39.093 C168.153,39.643 170.444,39.735 172.827,39.735 C181.074,39.735 187.855,35.978 187.855,26.448 C187.855,22.416 185.106,11.236 172.369,11.236 C170.169,11.236 168.428,11.419 166.596,11.603 L166.596,39.093 Z M150.834,70.25 L152.483,70.25 C156.699,70.25 158.532,68.692 158.532,62.736 L158.532,18.017 C158.532,12.061 156.699,10.503 152.483,10.503 L150.834,10.503 L150.834,7.754 C154.042,7.846 158.44,8.029 162.563,8.029 C168.703,8.029 173.102,7.754 177.134,7.754 C193.354,7.754 196.286,20.492 196.286,24.707 C196.286,36.711 187.855,40.377 183.273,41.843 L195.553,62.186 C200.593,70.433 202.059,70.983 209.481,71.441 L209.481,73.366 C207.741,73.366 206.091,73.457 204.35,73.457 C196.286,73.457 192.529,72.449 187.672,64.477 L176.951,46.974 C174.843,43.584 173.652,43.401 166.596,43.218 L166.596,60.537 C166.596,69.242 168.153,70.25 171.819,70.25 L174.477,70.25 L174.476,73 C170.444,72.908 166.596,72.724 162.563,72.724 C158.44,72.724 154.042,72.908 150.834,73 L150.834,70.25 Z" id="Fill-26" fill="#1A1919"></path>
            <path d="M223.777,70.25 L225.426,70.25 C229.641,70.25 231.475,68.692 231.475,62.736 L231.475,18.017 C231.475,12.061 229.641,10.503 225.426,10.503 L223.777,10.503 L223.777,7.754 C226.985,7.846 231.383,8.029 235.506,8.029 C239.538,8.029 243.387,7.846 247.418,7.754 L247.418,10.503 L244.762,10.503 C241.096,10.503 239.54,11.511 239.54,20.217 L239.54,41.751 L259.608,19.392 C260.524,18.384 264.006,14.718 264.006,12.885 C264.006,11.236 262.723,10.503 260.981,10.503 L259.333,10.503 L259.333,7.754 C262.723,7.846 266.571,8.029 270.145,8.029 C273.811,8.029 277.383,7.846 281.049,7.754 L281.049,10.503 L279.401,10.503 C274.911,10.503 273.352,11.328 267.946,17.009 L250.26,35.612 L273.903,63.286 C279.034,69.334 281.692,70.25 285.448,70.25 L286.823,70.25 L286.823,73 C283.891,72.908 280.866,72.724 277.934,72.724 C275.002,72.724 271.977,72.908 269.045,73 C268.588,70.342 268.313,68.967 263.088,63.011 L244.303,41.476 L239.54,46.516 L239.54,60.537 C239.54,69.242 241.096,70.25 244.762,70.25 L247.418,70.25 L247.418,73 C243.387,72.908 239.538,72.724 235.506,72.724 C231.383,72.724 226.985,72.908 223.777,73 L223.777,70.25" id="Fill-27" fill="#1A1919"></path>
            <path d="M404.389,122.84 C380.719,122.84 360.227,108.207 360.227,76.22 L360.227,0.178 L307.338,0.178 L307.338,139.715 L446.875,139.715 L446.875,88.802 C442.68,109.092 427.93,122.84 404.389,122.84" id="Fill-28" fill="#D02139"></path>
            <path d="M404.389,94.273 C417.088,94.273 420.987,83.115 420.987,72.201 L420.987,0.178 L388.512,0.178 L388.512,72.201 C388.512,83.568 392.553,94.273 404.389,94.273" id="Fill-29" fill="#D02139"></path>
        </g>
    </g>
</svg>